<?xml version="1.0" encoding="UTF-8" standalone="no"?>
<!-- Created with Inkscape (http://www.inkscape.org/) -->

<svg
   xmlns:dc="http://purl.org/dc/elements/1.1/"
   xmlns:cc="http://creativecommons.org/ns#"
   xmlns:rdf="http://www.w3.org/1999/02/22-rdf-syntax-ns#"
   xmlns:svg="http://www.w3.org/2000/svg"
   xmlns="http://www.w3.org/2000/svg"
   xmlns:sodipodi="http://sodipodi.sourceforge.net/DTD/sodipodi-0.dtd"
   xmlns:inkscape="http://www.inkscape.org/namespaces/inkscape"
   width="24px"
   height="24px"
   viewBox="0 0 24 24"
   version="1.1"
   id="SVGRoot"
   inkscape:version="0.92.4 (5da689c313, 2019-01-14)"
   sodipodi:docname="convenio.svg">
  <defs
     id="defs7810" />
  <sodipodi:namedview
     id="base"
     pagecolor="#ffffff"
     bordercolor="#666666"
     borderopacity="1.0"
     inkscape:pageopacity="0.0"
     inkscape:pageshadow="2"
     inkscape:zoom="30.169889"
     inkscape:cx="3.2240018"
     inkscape:cy="10.525988"
     inkscape:document-units="px"
     inkscape:current-layer="layer1"
     showgrid="false"
     inkscape:window-width="2560"
     inkscape:window-height="1377"
     inkscape:window-x="-8"
     inkscape:window-y="3"
     inkscape:window-maximized="1"
     inkscape:grid-bbox="true" />
  <metadata
     id="metadata7813">
    <rdf:RDF>
      <cc:Work
         rdf:about="">
        <dc:format>image/svg+xml</dc:format>
        <dc:type
           rdf:resource="http://purl.org/dc/dcmitype/StillImage" />
        <dc:title />
      </cc:Work>
    </rdf:RDF>
  </metadata>
  <g
     inkscape:label="Capa 1"
     inkscape:groupmode="layer"
     id="layer1">
    <path
       style="fill:#6d3219;fill-opacity:1;stroke:#000000;stroke-width:0.0234375;stroke-linecap:round;stroke-linejoin:bevel;stroke-miterlimit:4;stroke-dasharray:none;stroke-opacity:1;paint-order:markers stroke fill"
       d=""
       id="path8344"
       inkscape:connector-curvature="0" />
    <path
       style="fill:#6d3219;fill-opacity:1;stroke:#000000;stroke-width:0.06629126;stroke-linecap:round;stroke-linejoin:bevel;stroke-miterlimit:4;stroke-dasharray:none;stroke-opacity:1;paint-order:markers stroke fill"
       d=""
       id="path8348"
       inkscape:connector-curvature="0" />
    <path
       style="fill:#6d3219;fill-opacity:1;stroke:#000000;stroke-width:0.08022896;stroke-linecap:round;stroke-linejoin:bevel;stroke-miterlimit:4;stroke-dasharray:none;stroke-opacity:1;paint-order:markers stroke fill"
       d="M 2.1126635,12.949634 C 1.9773359,12.813239 1.659293,12.503388 1.4059011,12.261076 1.1525105,12.018765 0.86681116,11.736497 0.77101509,11.633813 L 0.59683912,11.447114 0.88750348,10.646813 C 1.4012247,9.232354 1.8305162,8.0305311 2.5254499,6.0612954 3.2154144,4.1061413 4.2851685,1.1382141 4.3532021,0.99037808 4.4290557,0.82555678 4.6119751,0.96385628 5.4685929,1.8336715 5.8082776,2.17859 6.0951957,2.5007917 6.1061871,2.549675 6.1171853,2.5985576 6.0875463,2.7355171 6.0403328,2.8540282 5.9931193,2.9725387 5.8341041,3.4360537 5.6869657,3.8840605 5.370329,4.8481537 5.1455605,5.4955344 4.6907264,6.753449 3.7116004,9.4613703 3.4274519,10.256612 3.03682,11.382224 2.6842362,12.398202 2.3861168,13.202103 2.3633181,13.198377 2.3607371,13.197944 2.2479947,13.086032 2.1126658,12.949634 Z"
       id="path8346-1"
       inkscape:connector-curvature="0" />
    <path
       style="fill:#6abcb8;fill-opacity:1;stroke:#000000;stroke-width:0.08022896;stroke-linecap:round;stroke-linejoin:bevel;stroke-miterlimit:4;stroke-dasharray:none;stroke-opacity:1;paint-order:markers stroke fill"
       d="m 12.832623,22.876473 c -0.264611,-0.06153 -1.280141,-0.492305 -1.344598,-0.570355 -0.01324,-0.01601 0.02401,-0.214078 0.0828,-0.440109 0.140779,-0.541473 0.163185,-0.808846 0.108994,-1.300717 -0.05862,-0.53202 -0.183609,-0.943904 -0.397204,-1.308876 -0.204245,-0.348999 -0.424544,-0.556725 -0.725973,-0.684541 -0.120807,-0.05122 -0.233668,-0.124277 -0.250802,-0.16233 -0.01713,-0.03806 -0.04927,-0.227772 -0.0714,-0.421594 C 10.139879,17.159917 9.714666,16.358585 9.237786,16.109756 8.9739067,15.97207 8.9770239,15.97949 8.875438,15.247597 8.7718988,14.50161 8.3977787,13.827676 7.9393152,13.561261 7.8010493,13.480915 7.6947702,13.453936 7.513303,13.453116 7.2064927,13.451728 7.0695354,13.529308 6.721279,13.901772 6.2987605,14.353658 6.3601166,14.348436 6.1204591,13.952953 5.8873758,13.568311 5.724556,13.393631 5.4508088,13.234524 5.198143,13.08767 4.8784571,13.086726 4.6476374,13.23221 4.5563534,13.289734 4.409036,13.382045 4.3202685,13.437367 L 4.1588761,13.537914 4.0553363,13.403143 C 3.964422,13.284806 3.8419004,13.043204 3.4205208,12.15132 L 3.3169362,11.932082 3.6134891,11.13472 C 4.3916024,9.0425594 5.0421284,7.1491747 5.1145031,6.7659579 5.1291937,6.6882001 5.2037449,6.476881 5.2801846,6.2963593 5.3566213,6.1158378 5.5932278,5.4966007 5.8059713,4.9202774 6.0187147,4.3439537 6.2052704,3.8718833 6.2205409,3.8712319 c 0.015274,-6.512e-4 0.1491833,0.09964 0.2975842,0.2228678 0.3572434,0.2966466 0.7990222,0.5330007 1.2043467,0.6443332 0.4649973,0.1277233 0.5719937,0.1926913 0.5719937,0.3473153 0,0.068393 -0.1148567,0.4019784 -0.2552357,0.741299 C 7.65597,6.7534497 7.4166975,7.4332335 7.3043682,7.9148196 7.2183922,8.2834327 7.2029945,8.4369926 7.2003011,8.9530512 c -0.00292,0.5635181 0.00325,0.6206551 0.089826,0.8216441 0.058908,0.136828 0.1521089,0.2636877 0.2542581,0.3460747 0.1413229,0.113979 0.1990183,0.131908 0.4665853,0.144957 0.3669466,0.0179 0.7427361,-0.109317 1.1576561,-0.3918757 0.5824612,-0.396652 0.9257724,-0.7891581 1.4734534,-1.6845939 0.490963,-0.8027097 0.584467,-0.9153829 0.869919,-1.0482791 0.308369,-0.1435652 0.396506,-0.141954 0.547479,0.010002 0.0672,0.067641 0.447291,0.4109208 0.844641,0.7628382 1.092898,0.9679448 2.152944,1.9789528 2.922954,2.7877395 0.423102,0.444408 2.753223,3.187694 3.017632,3.552701 0.602128,0.831219 0.719724,1.25826 0.532582,1.934006 -0.159995,0.577719 -0.400373,0.731685 -0.858759,0.550045 -0.200815,-0.07958 -0.796236,-0.592302 -1.503827,-1.294972 -0.960421,-0.953747 -1.173807,-1.154361 -1.669099,-1.569211 -0.404216,-0.338566 -0.606627,-0.469682 -0.79142,-0.512665 -0.104943,-0.02442 -0.126496,-0.01134 -0.195209,0.118089 -0.193522,0.364604 0.08365,0.728719 1.874882,2.46297 0.428319,0.414694 0.933492,0.896633 1.122605,1.070973 0.370853,0.341883 0.410482,0.415594 0.448256,0.833749 0.02523,0.279294 -0.01647,0.457702 -0.17492,0.748254 -0.121556,0.222911 -0.40466,0.414559 -0.612386,0.414559 -0.195805,0 -0.48346,-0.195711 -1.155432,-0.786116 -0.360392,-0.316645 -0.775135,-0.670075 -0.921652,-0.785402 -0.146515,-0.115317 -0.383565,-0.321463 -0.526778,-0.458086 -0.513627,-0.489993 -0.726357,-0.651646 -0.857536,-0.651646 -0.252662,0 -0.319369,0.347411 -0.128621,0.669831 0.10556,0.178436 0.660765,0.801644 0.990187,1.111483 1.007575,0.947668 1.584,1.552467 1.727498,1.81253 0.107625,0.195051 0.117729,0.240639 0.09931,0.448131 -0.05342,0.602062 -0.369902,0.887328 -0.889615,0.801896 -0.311158,-0.05114 -0.716568,-0.289133 -1.377607,-0.808684 -0.912121,-0.716888 -0.958883,-0.751608 -1.156379,-0.858544 -0.356507,-0.193036 -0.50893,-0.104499 -0.50893,0.295603 0,0.188931 0.0166,0.229276 0.17669,0.429374 0.113698,0.142117 0.525199,0.488602 1.15426,0.971893 1.111509,0.853945 1.043837,0.738831 0.693235,1.179233 -0.306545,0.385059 -0.51033,0.486516 -1.010783,0.503227 -0.2198,0.0073 -0.441483,0.0037 -0.49263,-0.0082 z"
       id="path8917-7"
       inkscape:connector-curvature="0" />
    <path
       style="fill:#de544a;fill-opacity:1;stroke:#000000;stroke-width:0.08022896;stroke-linecap:round;stroke-linejoin:bevel;stroke-miterlimit:4;stroke-dasharray:none;stroke-opacity:1;paint-order:markers stroke fill"
       d="M 19.395897,13.54192 C 19.346043,13.488389 19.166136,13.249919 18.996098,13.011991 17.850171,11.408547 14.390881,7.7586551 12.898339,6.5782563 12.086877,5.936499 11.931456,5.8843402 11.426233,6.0842218 10.850222,6.3121091 10.592538,6.5412366 10.353717,7.0378797 10.003605,7.7659557 9.3801239,8.5765084 8.9319387,8.8862523 8.4143384,9.2439688 7.8937445,9.3824226 7.8035181,9.1863614 7.6311861,8.8118839 7.9690627,7.7505466 8.9681312,5.5280807 9.5094135,4.3239813 9.6542261,4.0541212 9.9061855,3.7800192 10.174904,3.4876833 10.432294,3.3725557 11.210792,3.1964826 c 0.706728,-0.1598404 1.06261,-0.1983348 1.837315,-0.1987335 1.020591,-5.259e-4 1.478892,0.086798 2.844672,0.5420211 0.327343,0.1091062 0.781417,0.2303731 1.009055,0.2694843 l 0.413886,0.071112 0.37574,-0.1220382 c 0.206657,-0.067121 0.397301,-0.1124173 0.423653,-0.1006565 0.02635,0.01176 0.08794,0.1356777 0.136857,0.2753721 0.04891,0.1396941 0.151293,0.4194575 0.227499,0.6216962 0.580458,1.5404282 0.781061,2.0944737 0.853631,2.3576485 0.16209,0.5878134 0.541328,1.6833765 1.226247,3.5424444 0.22603,0.613508 0.410754,1.138113 0.4105,1.165788 -6.51e-4,0.07085 -0.80491,1.280476 -1.119235,1.683372 -0.143858,0.184394 -0.284626,0.335262 -0.312817,0.335262 -0.02819,0 -0.09205,-0.0438 -0.141898,-0.09735 z"
       id="path8352-5"
       inkscape:connector-curvature="0" />
    <path
       style="fill:#de544a;fill-opacity:1;stroke:#000000;stroke-width:0.08022896;stroke-linecap:round;stroke-linejoin:bevel;stroke-miterlimit:4;stroke-dasharray:none;stroke-opacity:1;paint-order:markers stroke fill"
       d="M 4.417446,16.649706 C 4.1434012,16.418839 3.9310325,16.002724 3.8981492,15.632198 c -0.025206,-0.284065 0.053487,-0.60955 0.2724489,-1.126801 0.2922735,-0.690439 0.5222348,-0.972834 0.7924806,-0.973181 0.2858801,-3.62e-4 0.6084805,0.615635 0.6049667,1.155164 -0.00258,0.395143 -0.086425,0.714079 -0.3515345,1.337127 -0.3242906,0.762127 -0.4861754,0.888788 -0.7990649,0.625199 z"
       id="path8897-8"
       inkscape:connector-curvature="0" />
    <path
       style="fill:#de544a;fill-opacity:1;stroke:#000000;stroke-width:0.08022896;stroke-linecap:round;stroke-linejoin:bevel;stroke-miterlimit:4;stroke-dasharray:none;stroke-opacity:1;paint-order:markers stroke fill"
       d="M 5.8601428,19.379463 C 5.6077892,19.200495 5.3757674,18.748844 5.3364806,18.360108 5.2982226,17.98152 5.4525132,17.580004 6.2353727,16.020914 c 0.3491251,-0.69529 0.4268787,-0.859211 0.5950684,-1.254528 0.1854186,-0.435809 0.4604296,-0.800302 0.6038321,-0.800302 0.1237954,0 0.4713504,0.396648 0.5856806,0.668409 0.2178621,0.517858 0.1771915,0.806058 -0.2719595,1.927168 C 7.5345842,17.094344 6.805638,18.627521 6.5609572,19.058328 6.346684,19.435599 6.0992011,19.549 5.8601428,19.379463 Z"
       id="path8899-9"
       inkscape:connector-curvature="0" />
    <path
       style="fill:#de544a;fill-opacity:1;stroke:#000000;stroke-width:0.08022896;stroke-linecap:round;stroke-linejoin:bevel;stroke-miterlimit:4;stroke-dasharray:none;stroke-opacity:1;paint-order:markers stroke fill"
       d="m 7.8091552,21.28149 c -0.3087214,-0.273841 -0.4781041,-0.779214 -0.423542,-1.263684 0.066471,-0.590201 0.9696147,-2.659486 1.37365,-3.147302 0.2498699,-0.301684 0.3812492,-0.269351 0.7408276,0.182325 0.2124995,0.266927 0.3233687,0.552506 0.3233687,0.832942 0,0.427927 -1.1442249,3.020143 -1.4964822,3.390244 -0.1814156,0.190606 -0.3076037,0.191939 -0.5178221,0.0054 z"
       id="path8901-0"
       inkscape:connector-curvature="0" />
    <path
       style="fill:#de544a;fill-opacity:1;stroke:#000000;stroke-width:0.08022896;stroke-linecap:round;stroke-linejoin:bevel;stroke-miterlimit:4;stroke-dasharray:none;stroke-opacity:1;paint-order:markers stroke fill"
       d="M 9.5951511,22.850123 C 9.4220076,22.673328 9.2945358,22.376789 9.2426045,22.029981 c -0.037851,-0.252775 -0.033271,-0.306713 0.052975,-0.624232 0.1578787,-0.581216 0.609221,-1.528342 0.9112075,-1.912137 0.120296,-0.152886 0.302585,-0.18857 0.461345,-0.09032 0.22844,0.14139 0.583422,0.791727 0.583422,1.068843 0,0.233963 -0.214726,0.799393 -0.642837,1.692742 -0.246482,0.51434 -0.322621,0.623031 -0.518118,0.739624 -0.2023445,0.120673 -0.3386516,0.105723 -0.4954497,-0.05437 z"
       id="path8903-2"
       inkscape:connector-curvature="0" />
    <path
       style="fill:#6d3219;fill-opacity:1;stroke:#000000;stroke-width:0.16045791;stroke-linecap:round;stroke-linejoin:bevel;stroke-miterlimit:4;stroke-dasharray:none;stroke-opacity:1;paint-order:markers stroke fill"
       d="M 21.637201,11.939701 C 21.532714,11.66693 21.275203,10.940536 21.064955,10.325486 20.854706,9.7104413 20.285941,8.1141611 19.80103,6.7782008 18.374682,2.8485059 18.067729,1.886524 18.179677,1.6969293 c 0.139618,-0.2364559 1.478992,-1.54392877 1.581598,-1.54392877 0.10262,0 0.459696,0.94247707 1.884854,4.97485447 0.571815,1.6179087 1.243909,3.5020133 1.493544,4.186898 0.249633,0.6848833 0.453878,1.292006 0.453878,1.349157 0,0.09527 -0.708281,0.821282 -1.459757,1.496311 l -0.306616,0.275425 z"
       id="path8340-4"
       inkscape:connector-curvature="0" />
  </g>
</svg>
