<?xml version="1.0" encoding="UTF-8" standalone="no"?>
<!-- Created with Inkscape (http://www.inkscape.org/) -->

<svg
   xmlns:dc="http://purl.org/dc/elements/1.1/"
   xmlns:cc="http://creativecommons.org/ns#"
   xmlns:rdf="http://www.w3.org/1999/02/22-rdf-syntax-ns#"
   xmlns:svg="http://www.w3.org/2000/svg"
   xmlns="http://www.w3.org/2000/svg"
   xmlns:sodipodi="http://sodipodi.sourceforge.net/DTD/sodipodi-0.dtd"
   xmlns:inkscape="http://www.inkscape.org/namespaces/inkscape"
   width="24px"
   height="24px"
   viewBox="0 0 24 24"
   version="1.1"
   id="SVGRoot"
   inkscape:version="0.92.4 (5da689c313, 2019-01-14)"
   sodipodi:docname="imprimir.svg">
  <defs
     id="defs5756" />
  <sodipodi:namedview
     id="base"
     pagecolor="#ffffff"
     bordercolor="#666666"
     borderopacity="1.0"
     inkscape:pageopacity="0.0"
     inkscape:pageshadow="2"
     inkscape:zoom="21.333333"
     inkscape:cx="12.806948"
     inkscape:cy="15.264533"
     inkscape:document-units="px"
     inkscape:current-layer="layer3"
     showgrid="false"
     inkscape:window-width="1278"
     inkscape:window-height="1352"
     inkscape:window-x="-7"
     inkscape:window-y="11"
     inkscape:window-maximized="0"
     inkscape:grid-bbox="true" />
  <metadata
     id="metadata5759">
    <rdf:RDF>
      <cc:Work
         rdf:about="">
        <dc:format>image/svg+xml</dc:format>
        <dc:type
           rdf:resource="http://purl.org/dc/dcmitype/StillImage" />
        <dc:title></dc:title>
      </cc:Work>
    </rdf:RDF>
  </metadata>
  <g
     inkscape:groupmode="layer"
     id="layer4"
     inkscape:label="Capa 3">
    <rect
       style="fill:#6d3219;fill-opacity:1;stroke:none;stroke-width:4.10713387;stroke-linecap:round;stroke-linejoin:bevel;stroke-miterlimit:4;stroke-dasharray:none;stroke-opacity:1;paint-order:markers stroke fill"
       id="rect6683"
       width="21.858105"
       height="2.4066458"
       x="1.6492136"
       y="9.0404692"
       rx="1.013849"
       ry="1.2972164" />
    <rect
       style="fill:#6d3219;fill-opacity:1;stroke:none;stroke-width:4.10713387;stroke-linecap:round;stroke-linejoin:bevel;stroke-miterlimit:4;stroke-dasharray:none;stroke-opacity:1;paint-order:markers stroke fill"
       id="rect6688"
       width="1.871642"
       height="0.85397112"
       x="0.8470813"
       y="9.8168058"
       rx="1.013849"
       ry="0.81515396" />
    <rect
       style="fill:#6d3219;fill-opacity:1;stroke:none;stroke-width:4.10713387;stroke-linecap:round;stroke-linejoin:bevel;stroke-miterlimit:4;stroke-dasharray:none;stroke-opacity:1;paint-order:markers stroke fill"
       id="rect6690"
       width="0.63502145"
       height="5.5896292"
       x="0.8470813"
       y="5.0811491"
       rx="1.013849"
       ry="0.81515396" />
    <rect
       style="fill:#6d3219;fill-opacity:1;stroke:none;stroke-width:4.10713387;stroke-linecap:round;stroke-linejoin:bevel;stroke-miterlimit:4;stroke-dasharray:none;stroke-opacity:1;paint-order:markers stroke fill"
       id="rect6692"
       width="1.1029319"
       height="1.6691251"
       x="0.8470813"
       y="5.0811491"
       rx="1.013849"
       ry="0.81515396" />
  </g>
  <g
     inkscape:groupmode="layer"
     id="layer3"
     inkscape:label="Capa 2">
    <rect
       style="fill:#de544a;fill-opacity:1;stroke:none;stroke-width:4.10713387;stroke-linecap:round;stroke-linejoin:bevel;stroke-miterlimit:4;stroke-dasharray:none;stroke-opacity:1;paint-order:markers stroke fill"
       id="rect6678"
       width="20.42095"
       height="4.58039"
       x="2.3176572"
       y="7.9535961"
       rx="1.013849"
       ry="1.2972164" />
    <rect
       style="fill:#f7e1b7;fill-opacity:1;stroke:none;stroke-width:4.61206102;stroke-linecap:round;stroke-linejoin:bevel;stroke-miterlimit:4;stroke-dasharray:none;stroke-opacity:1;paint-order:markers stroke fill"
       id="rect6716"
       width="14.171003"
       height="11.40483"
       x="5.4259195"
       y="1.2456088"
       rx="1.013849"
       ry="0.39158207" />
    <path
       style="fill:#f7e1b7;fill-opacity:1;stroke:none;stroke-width:4.10713387;stroke-linecap:round;stroke-linejoin:bevel;stroke-miterlimit:4;stroke-dasharray:none;stroke-opacity:1;paint-order:markers stroke fill"
       id="path6719"
       sodipodi:type="arc"
       sodipodi:cx="12.1772"
       sodipodi:cy="12.184636"
       sodipodi:rx="2.1055975"
       sodipodi:ry="0.97042167"
       sodipodi:start="0"
       sodipodi:end="3.1841438"
       d="m 14.282798,12.184636 a 2.1055975,0.97042167 0 0 1 -1.078768,0.847207 2.1055975,0.97042167 0 0 1 -2.130926,-0.0209 2.1055975,0.97042167 0 0 1 -0.999595,-0.867589 l 2.103691,0.04128 z" />
    <rect
       style="fill:#6d3219;fill-opacity:1;stroke:none;stroke-width:4.10713387;stroke-linecap:round;stroke-linejoin:bevel;stroke-miterlimit:4;stroke-dasharray:none;stroke-opacity:1;paint-order:markers stroke fill"
       id="rect6725"
       width="12.005589"
       height="0.32937205"
       x="6.5629201"
       y="3.0257008"
       rx="1.013849"
       ry="0.32937205" />
    <rect
       style="fill:#6d3219;fill-opacity:1;stroke:none;stroke-width:4.10713387;stroke-linecap:round;stroke-linejoin:bevel;stroke-miterlimit:4;stroke-dasharray:none;stroke-opacity:1;paint-order:markers stroke fill"
       id="rect6725-0"
       width="12.005589"
       height="0.32937205"
       x="6.7047181"
       y="4.5627699"
       rx="1.013849"
       ry="0.32937205" />
    <rect
       style="fill:#6d3219;fill-opacity:1;stroke:none;stroke-width:4.10713387;stroke-linecap:round;stroke-linejoin:bevel;stroke-miterlimit:4;stroke-dasharray:none;stroke-opacity:1;paint-order:markers stroke fill"
       id="rect6725-2"
       width="12.005589"
       height="0.32937205"
       x="6.7047181"
       y="6.4841065"
       rx="1.013849"
       ry="0.32937205" />
    <rect
       style="fill:#6d3219;fill-opacity:1;stroke:none;stroke-width:3.53346634;stroke-linecap:round;stroke-linejoin:bevel;stroke-miterlimit:4;stroke-dasharray:none;stroke-opacity:1;paint-order:markers stroke fill"
       id="rect6725-08"
       width="8.8860273"
       height="0.32937205"
       x="8.1699677"
       y="8.0760717"
       rx="0.75040793"
       ry="0.32937205" />
  </g>
  <g
     inkscape:label="Capa 1"
     inkscape:groupmode="layer"
     id="layer1">
    <rect
       style="fill:#6abcb8;fill-opacity:1;stroke:none;stroke-width:4.33442831;stroke-linecap:round;stroke-linejoin:bevel;stroke-miterlimit:4;stroke-dasharray:none;stroke-opacity:1;paint-order:markers stroke fill"
       id="rect6323"
       width="17.393923"
       height="11.857393"
       x="3.7742205"
       y="11.205107"
       rx="1.0138534"
       ry="1.2972192" />
    <rect
       style="fill:#6d3219;fill-opacity:1;stroke:none;stroke-width:4.04818583;stroke-linecap:round;stroke-linejoin:bevel;stroke-miterlimit:4;stroke-dasharray:none;stroke-opacity:1;paint-order:markers stroke fill"
       id="rect6323-9"
       width="15.172418"
       height="7.7951384"
       x="4.814074"
       y="14.11456"
       rx="0"
       ry="0.74826562" />
    <path
       style="fill:#f7e1b7;fill-opacity:1;stroke:none;stroke-width:6.89367771;stroke-linecap:round;stroke-linejoin:bevel;stroke-miterlimit:4;stroke-dasharray:none;stroke-opacity:1;paint-order:markers stroke fill"
       id="path6342-8-2-62"
       sodipodi:type="arc"
       sodipodi:cx="6.2970471"
       sodipodi:cy="-15.440884"
       sodipodi:rx="0.64802557"
       sodipodi:ry="1.1364814"
       sodipodi:start="0"
       sodipodi:end="3.1841494"
       d="m 6.9450727,-15.440884 a 0.64802557,1.1364814 0 0 1 -0.3320062,0.992184 0.64802557,1.1364814 0 0 1 -0.6558217,-0.02448 0.64802557,1.1364814 0 0 1 -0.3076365,-1.016057 l 0.6474388,0.04835 z"
       transform="scale(1,-1)" />
    <path
       style="fill:#f7e1b7;fill-opacity:1;stroke:none;stroke-width:6.89367771;stroke-linecap:round;stroke-linejoin:bevel;stroke-miterlimit:4;stroke-dasharray:none;stroke-opacity:1;paint-order:markers stroke fill"
       id="path6342-8-2-9-7"
       sodipodi:type="arc"
       sodipodi:cx="8.0205717"
       sodipodi:cy="-15.440884"
       sodipodi:rx="0.64802557"
       sodipodi:ry="1.1364814"
       sodipodi:start="0"
       sodipodi:end="3.1841494"
       d="m 8.6685973,-15.440884 a 0.64802557,1.1364814 0 0 1 -0.3320062,0.992184 0.64802557,1.1364814 0 0 1 -0.6558217,-0.02448 0.64802557,1.1364814 0 0 1 -0.3076365,-1.016057 l 0.6474388,0.04835 z"
       transform="scale(1,-1)" />
    <path
       style="fill:#f7e1b7;fill-opacity:1;stroke:none;stroke-width:6.89367771;stroke-linecap:round;stroke-linejoin:bevel;stroke-miterlimit:4;stroke-dasharray:none;stroke-opacity:1;paint-order:markers stroke fill"
       id="path6342-8-2-6-9"
       sodipodi:type="arc"
       sodipodi:cx="9.7440958"
       sodipodi:cy="-15.440884"
       sodipodi:rx="0.64802557"
       sodipodi:ry="1.1364814"
       sodipodi:start="0"
       sodipodi:end="3.1841494"
       d="m 10.392121,-15.440884 a 0.64802557,1.1364814 0 0 1 -0.332006,0.992184 0.64802557,1.1364814 0 0 1 -0.6558215,-0.02448 0.64802557,1.1364814 0 0 1 -0.3076365,-1.016057 l 0.6474388,0.04835 z"
       transform="scale(1,-1)" />
    <path
       style="fill:#f7e1b7;fill-opacity:1;stroke:none;stroke-width:6.89367771;stroke-linecap:round;stroke-linejoin:bevel;stroke-miterlimit:4;stroke-dasharray:none;stroke-opacity:1;paint-order:markers stroke fill"
       id="path6342-8-2-4-6"
       sodipodi:type="arc"
       sodipodi:cx="11.46762"
       sodipodi:cy="-15.440884"
       sodipodi:rx="0.64802557"
       sodipodi:ry="1.1364814"
       sodipodi:start="0"
       sodipodi:end="3.1841494"
       d="m 12.115645,-15.440884 a 0.64802557,1.1364814 0 0 1 -0.332006,0.992184 0.64802557,1.1364814 0 0 1 -0.655821,-0.02448 0.64802557,1.1364814 0 0 1 -0.307637,-1.016057 l 0.647439,0.04835 z"
       transform="scale(1,-1)" />
    <path
       style="fill:#f7e1b7;fill-opacity:1;stroke:none;stroke-width:6.89367771;stroke-linecap:round;stroke-linejoin:bevel;stroke-miterlimit:4;stroke-dasharray:none;stroke-opacity:1;paint-order:markers stroke fill"
       id="path6342-8-2-2-1"
       sodipodi:type="arc"
       sodipodi:cx="13.191145"
       sodipodi:cy="-15.440884"
       sodipodi:rx="0.64802557"
       sodipodi:ry="1.1364814"
       sodipodi:start="0"
       sodipodi:end="3.1841494"
       d="m 13.839171,-15.440884 a 0.64802557,1.1364814 0 0 1 -0.332007,0.992184 0.64802557,1.1364814 0 0 1 -0.655821,-0.02448 0.64802557,1.1364814 0 0 1 -0.307637,-1.016057 l 0.647439,0.04835 z"
       transform="scale(1,-1)" />
    <path
       style="fill:#f7e1b7;fill-opacity:1;stroke:none;stroke-width:6.89367771;stroke-linecap:round;stroke-linejoin:bevel;stroke-miterlimit:4;stroke-dasharray:none;stroke-opacity:1;paint-order:markers stroke fill"
       id="path6342-8-2-27-4"
       sodipodi:type="arc"
       sodipodi:cx="14.914671"
       sodipodi:cy="-15.440884"
       sodipodi:rx="0.64802557"
       sodipodi:ry="1.1364814"
       sodipodi:start="0"
       sodipodi:end="3.1841494"
       d="m 15.562697,-15.440884 a 0.64802557,1.1364814 0 0 1 -0.332007,0.992184 0.64802557,1.1364814 0 0 1 -0.655821,-0.02448 0.64802557,1.1364814 0 0 1 -0.307637,-1.016057 l 0.647439,0.04835 z"
       transform="scale(1,-1)" />
    <path
       style="fill:#f7e1b7;fill-opacity:1;stroke:none;stroke-width:6.89367771;stroke-linecap:round;stroke-linejoin:bevel;stroke-miterlimit:4;stroke-dasharray:none;stroke-opacity:1;paint-order:markers stroke fill"
       id="path6342-8-2-23-8"
       sodipodi:type="arc"
       sodipodi:cx="16.638195"
       sodipodi:cy="-15.440884"
       sodipodi:rx="0.64802557"
       sodipodi:ry="1.1364814"
       sodipodi:start="0"
       sodipodi:end="3.1841494"
       d="m 17.286221,-15.440884 a 0.64802557,1.1364814 0 0 1 -0.332007,0.992184 0.64802557,1.1364814 0 0 1 -0.655821,-0.02448 0.64802557,1.1364814 0 0 1 -0.307637,-1.016057 l 0.647439,0.04835 z"
       transform="scale(1,-1)" />
    <path
       style="fill:#f7e1b7;fill-opacity:1;stroke:none;stroke-width:6.89367771;stroke-linecap:round;stroke-linejoin:bevel;stroke-miterlimit:4;stroke-dasharray:none;stroke-opacity:1;paint-order:markers stroke fill"
       id="path6342-8-2-3-8"
       sodipodi:type="arc"
       sodipodi:cx="18.361721"
       sodipodi:cy="-15.440884"
       sodipodi:rx="0.64802557"
       sodipodi:ry="1.1364814"
       sodipodi:start="0"
       sodipodi:end="3.1841494"
       d="m 19.009747,-15.440884 a 0.64802557,1.1364814 0 0 1 -0.332007,0.992184 0.64802557,1.1364814 0 0 1 -0.655821,-0.02448 0.64802557,1.1364814 0 0 1 -0.307637,-1.016057 l 0.647439,0.04835 z"
       transform="scale(1,-1)" />
    <path
       style="fill:#f7e1b7;fill-opacity:1;stroke:none;stroke-width:6.89367771;stroke-linecap:round;stroke-linejoin:bevel;stroke-miterlimit:4;stroke-dasharray:none;stroke-opacity:1;paint-order:markers stroke fill"
       id="path6342-8-2-62-1"
       sodipodi:type="arc"
       sodipodi:cx="7.1478362"
       sodipodi:cy="-17.348499"
       sodipodi:rx="0.64802557"
       sodipodi:ry="1.1364814"
       sodipodi:start="0"
       sodipodi:end="3.1841494"
       d="m 7.7958618,-17.348499 a 0.64802557,1.1364814 0 0 1 -0.3320062,0.992183 0.64802557,1.1364814 0 0 1 -0.6558217,-0.02448 0.64802557,1.1364814 0 0 1 -0.3076365,-1.016057 l 0.6474388,0.04835 z"
       transform="scale(1,-1)" />
    <path
       style="fill:#f7e1b7;fill-opacity:1;stroke:none;stroke-width:6.89367771;stroke-linecap:round;stroke-linejoin:bevel;stroke-miterlimit:4;stroke-dasharray:none;stroke-opacity:1;paint-order:markers stroke fill"
       id="path6342-8-2-9-7-2"
       sodipodi:type="arc"
       sodipodi:cx="8.8713617"
       sodipodi:cy="-17.348499"
       sodipodi:rx="0.64802557"
       sodipodi:ry="1.1364814"
       sodipodi:start="0"
       sodipodi:end="3.1841494"
       d="m 9.5193873,-17.348499 a 0.64802557,1.1364814 0 0 1 -0.3320062,0.992183 0.64802557,1.1364814 0 0 1 -0.6558217,-0.02448 0.64802557,1.1364814 0 0 1 -0.3076365,-1.016057 l 0.6474388,0.04835 z"
       transform="scale(1,-1)" />
    <path
       style="fill:#f7e1b7;fill-opacity:1;stroke:none;stroke-width:6.89367771;stroke-linecap:round;stroke-linejoin:bevel;stroke-miterlimit:4;stroke-dasharray:none;stroke-opacity:1;paint-order:markers stroke fill"
       id="path6342-8-2-6-9-2"
       sodipodi:type="arc"
       sodipodi:cx="10.594886"
       sodipodi:cy="-17.348499"
       sodipodi:rx="0.64802557"
       sodipodi:ry="1.1364814"
       sodipodi:start="0"
       sodipodi:end="3.1841494"
       d="m 11.242911,-17.348499 a 0.64802557,1.1364814 0 0 1 -0.332006,0.992183 0.64802557,1.1364814 0 0 1 -0.655822,-0.02448 0.64802557,1.1364814 0 0 1 -0.307636,-1.016057 l 0.647439,0.04835 z"
       transform="scale(1,-1)" />
    <path
       style="fill:#f7e1b7;fill-opacity:1;stroke:none;stroke-width:6.89367771;stroke-linecap:round;stroke-linejoin:bevel;stroke-miterlimit:4;stroke-dasharray:none;stroke-opacity:1;paint-order:markers stroke fill"
       id="path6342-8-2-4-6-3"
       sodipodi:type="arc"
       sodipodi:cx="12.318408"
       sodipodi:cy="-17.348499"
       sodipodi:rx="0.64802557"
       sodipodi:ry="1.1364814"
       sodipodi:start="0"
       sodipodi:end="3.1841494"
       d="m 12.966434,-17.348499 a 0.64802557,1.1364814 0 0 1 -0.332007,0.992183 0.64802557,1.1364814 0 0 1 -0.655821,-0.02448 0.64802557,1.1364814 0 0 1 -0.307637,-1.016057 l 0.647439,0.04835 z"
       transform="scale(1,-1)" />
    <path
       style="fill:#f7e1b7;fill-opacity:1;stroke:none;stroke-width:6.89367771;stroke-linecap:round;stroke-linejoin:bevel;stroke-miterlimit:4;stroke-dasharray:none;stroke-opacity:1;paint-order:markers stroke fill"
       id="path6342-8-2-2-1-0"
       sodipodi:type="arc"
       sodipodi:cx="14.041935"
       sodipodi:cy="-17.348499"
       sodipodi:rx="0.64802557"
       sodipodi:ry="1.1364814"
       sodipodi:start="0"
       sodipodi:end="3.1841494"
       d="m 14.689961,-17.348499 a 0.64802557,1.1364814 0 0 1 -0.332007,0.992183 0.64802557,1.1364814 0 0 1 -0.655821,-0.02448 0.64802557,1.1364814 0 0 1 -0.307637,-1.016057 l 0.647439,0.04835 z"
       transform="scale(1,-1)" />
    <path
       style="fill:#f7e1b7;fill-opacity:1;stroke:none;stroke-width:6.89367771;stroke-linecap:round;stroke-linejoin:bevel;stroke-miterlimit:4;stroke-dasharray:none;stroke-opacity:1;paint-order:markers stroke fill"
       id="path6342-8-2-27-4-6"
       sodipodi:type="arc"
       sodipodi:cx="15.765462"
       sodipodi:cy="-17.348499"
       sodipodi:rx="0.64802557"
       sodipodi:ry="1.1364814"
       sodipodi:start="0"
       sodipodi:end="3.1841494"
       d="m 16.413487,-17.348499 a 0.64802557,1.1364814 0 0 1 -0.332006,0.992183 0.64802557,1.1364814 0 0 1 -0.655821,-0.02448 0.64802557,1.1364814 0 0 1 -0.307637,-1.016057 l 0.647439,0.04835 z"
       transform="scale(1,-1)" />
    <path
       style="fill:#f7e1b7;fill-opacity:1;stroke:none;stroke-width:6.89367771;stroke-linecap:round;stroke-linejoin:bevel;stroke-miterlimit:4;stroke-dasharray:none;stroke-opacity:1;paint-order:markers stroke fill"
       id="path6342-8-2-23-8-8"
       sodipodi:type="arc"
       sodipodi:cx="17.488987"
       sodipodi:cy="-17.348499"
       sodipodi:rx="0.64802557"
       sodipodi:ry="1.1364814"
       sodipodi:start="0"
       sodipodi:end="3.1841494"
       d="m 18.137013,-17.348499 a 0.64802557,1.1364814 0 0 1 -0.332007,0.992183 0.64802557,1.1364814 0 0 1 -0.655821,-0.02448 0.64802557,1.1364814 0 0 1 -0.307637,-1.016057 l 0.647439,0.04835 z"
       transform="scale(1,-1)" />
    <path
       style="fill:#f7e1b7;fill-opacity:1;stroke:none;stroke-width:6.89367771;stroke-linecap:round;stroke-linejoin:bevel;stroke-miterlimit:4;stroke-dasharray:none;stroke-opacity:1;paint-order:markers stroke fill"
       id="path6342-8-2-62-5"
       sodipodi:type="arc"
       sodipodi:cx="6.1552486"
       sodipodi:cy="-19.160042"
       sodipodi:rx="0.64802557"
       sodipodi:ry="1.1364814"
       sodipodi:start="0"
       sodipodi:end="3.1841494"
       d="m 6.8032742,-19.160042 a 0.64802557,1.1364814 0 0 1 -0.3320061,0.992183 0.64802557,1.1364814 0 0 1 -0.6558218,-0.02448 0.64802557,1.1364814 0 0 1 -0.3076365,-1.016056 l 0.6474388,0.04835 z"
       transform="scale(1,-1)" />
    <path
       style="fill:#f7e1b7;fill-opacity:1;stroke:none;stroke-width:6.89367771;stroke-linecap:round;stroke-linejoin:bevel;stroke-miterlimit:4;stroke-dasharray:none;stroke-opacity:1;paint-order:markers stroke fill"
       id="path6342-8-2-9-7-6"
       sodipodi:type="arc"
       sodipodi:cx="7.8787732"
       sodipodi:cy="-19.160042"
       sodipodi:rx="0.64802557"
       sodipodi:ry="1.1364814"
       sodipodi:start="0"
       sodipodi:end="3.1841494"
       d="m 8.5267988,-19.160042 a 0.64802557,1.1364814 0 0 1 -0.3320062,0.992183 0.64802557,1.1364814 0 0 1 -0.6558217,-0.02448 0.64802557,1.1364814 0 0 1 -0.3076365,-1.016056 l 0.6474388,0.04835 z"
       transform="scale(1,-1)" />
    <path
       style="fill:#f7e1b7;fill-opacity:1;stroke:none;stroke-width:6.89367771;stroke-linecap:round;stroke-linejoin:bevel;stroke-miterlimit:4;stroke-dasharray:none;stroke-opacity:1;paint-order:markers stroke fill"
       id="path6342-8-2-6-9-5"
       sodipodi:type="arc"
       sodipodi:cx="9.6022978"
       sodipodi:cy="-19.160042"
       sodipodi:rx="0.64802557"
       sodipodi:ry="1.1364814"
       sodipodi:start="0"
       sodipodi:end="3.1841494"
       d="m 10.250323,-19.160042 a 0.64802557,1.1364814 0 0 1 -0.3320058,0.992183 0.64802557,1.1364814 0 0 1 -0.6558218,-0.02448 0.64802557,1.1364814 0 0 1 -0.3076365,-1.016056 l 0.6474389,0.04835 z"
       transform="scale(1,-1)" />
    <path
       style="fill:#f7e1b7;fill-opacity:1;stroke:none;stroke-width:6.89367771;stroke-linecap:round;stroke-linejoin:bevel;stroke-miterlimit:4;stroke-dasharray:none;stroke-opacity:1;paint-order:markers stroke fill"
       id="path6342-8-2-4-6-5"
       sodipodi:type="arc"
       sodipodi:cx="11.325821"
       sodipodi:cy="-19.160042"
       sodipodi:rx="0.64802557"
       sodipodi:ry="1.1364814"
       sodipodi:start="0"
       sodipodi:end="3.1841494"
       d="m 11.973846,-19.160042 a 0.64802557,1.1364814 0 0 1 -0.332006,0.992183 0.64802557,1.1364814 0 0 1 -0.655821,-0.02448 0.64802557,1.1364814 0 0 1 -0.307637,-1.016056 l 0.647439,0.04835 z"
       transform="scale(1,-1)" />
    <path
       style="fill:#f7e1b7;fill-opacity:1;stroke:none;stroke-width:6.89367771;stroke-linecap:round;stroke-linejoin:bevel;stroke-miterlimit:4;stroke-dasharray:none;stroke-opacity:1;paint-order:markers stroke fill"
       id="path6342-8-2-2-1-8"
       sodipodi:type="arc"
       sodipodi:cx="13.049347"
       sodipodi:cy="-19.160042"
       sodipodi:rx="0.64802557"
       sodipodi:ry="1.1364814"
       sodipodi:start="0"
       sodipodi:end="3.1841494"
       d="m 13.697372,-19.160042 a 0.64802557,1.1364814 0 0 1 -0.332006,0.992183 0.64802557,1.1364814 0 0 1 -0.655821,-0.02448 0.64802557,1.1364814 0 0 1 -0.307637,-1.016056 l 0.647439,0.04835 z"
       transform="scale(1,-1)" />
    <path
       style="fill:#f7e1b7;fill-opacity:1;stroke:none;stroke-width:6.89367771;stroke-linecap:round;stroke-linejoin:bevel;stroke-miterlimit:4;stroke-dasharray:none;stroke-opacity:1;paint-order:markers stroke fill"
       id="path6342-8-2-27-4-7"
       sodipodi:type="arc"
       sodipodi:cx="14.772874"
       sodipodi:cy="-19.160042"
       sodipodi:rx="0.64802557"
       sodipodi:ry="1.1364814"
       sodipodi:start="0"
       sodipodi:end="3.1841494"
       d="m 15.420899,-19.160042 a 0.64802557,1.1364814 0 0 1 -0.332006,0.992183 0.64802557,1.1364814 0 0 1 -0.655821,-0.02448 0.64802557,1.1364814 0 0 1 -0.307637,-1.016056 l 0.647439,0.04835 z"
       transform="scale(1,-1)" />
    <path
       style="fill:#f7e1b7;fill-opacity:1;stroke:none;stroke-width:6.89367771;stroke-linecap:round;stroke-linejoin:bevel;stroke-miterlimit:4;stroke-dasharray:none;stroke-opacity:1;paint-order:markers stroke fill"
       id="path6342-8-2-23-8-9"
       sodipodi:type="arc"
       sodipodi:cx="16.496397"
       sodipodi:cy="-19.160042"
       sodipodi:rx="0.64802557"
       sodipodi:ry="1.1364814"
       sodipodi:start="0"
       sodipodi:end="3.1841494"
       d="m 17.144423,-19.160042 a 0.64802557,1.1364814 0 0 1 -0.332007,0.992183 0.64802557,1.1364814 0 0 1 -0.655821,-0.02448 0.64802557,1.1364814 0 0 1 -0.307637,-1.016056 l 0.647439,0.04835 z"
       transform="scale(1,-1)" />
    <path
       style="fill:#f7e1b7;fill-opacity:1;stroke:none;stroke-width:6.89367771;stroke-linecap:round;stroke-linejoin:bevel;stroke-miterlimit:4;stroke-dasharray:none;stroke-opacity:1;paint-order:markers stroke fill"
       id="path6342-8-2-3-8-6"
       sodipodi:type="arc"
       sodipodi:cx="18.219925"
       sodipodi:cy="-19.160042"
       sodipodi:rx="0.64802557"
       sodipodi:ry="1.1364814"
       sodipodi:start="0"
       sodipodi:end="3.1841494"
       d="m 18.86795,-19.160042 a 0.64802557,1.1364814 0 0 1 -0.332006,0.992183 0.64802557,1.1364814 0 0 1 -0.655821,-0.02448 0.64802557,1.1364814 0 0 1 -0.307637,-1.016056 l 0.647439,0.04835 z"
       transform="scale(1,-1)" />
    <path
       style="fill:#f7e1b7;fill-opacity:1;stroke:none;stroke-width:6.89367771;stroke-linecap:round;stroke-linejoin:bevel;stroke-miterlimit:4;stroke-dasharray:none;stroke-opacity:1;paint-order:markers stroke fill"
       id="path6342-8-2-62-59"
       sodipodi:type="arc"
       sodipodi:cx="7.0533042"
       sodipodi:cy="-20.944143"
       sodipodi:rx="0.64802557"
       sodipodi:ry="1.1364814"
       sodipodi:start="0"
       sodipodi:end="3.1841494"
       d="m 7.7013298,-20.944143 a 0.64802557,1.1364814 0 0 1 -0.3320062,0.992183 0.64802557,1.1364814 0 0 1 -0.6558217,-0.02448 0.64802557,1.1364814 0 0 1 -0.3076366,-1.016057 l 0.6474389,0.04835 z"
       transform="scale(1,-1)" />
    <path
       style="fill:#f7e1b7;fill-opacity:1;stroke:none;stroke-width:6.89367771;stroke-linecap:round;stroke-linejoin:bevel;stroke-miterlimit:4;stroke-dasharray:none;stroke-opacity:1;paint-order:markers stroke fill"
       id="path6342-8-2-9-7-0"
       sodipodi:type="arc"
       sodipodi:cx="8.7768288"
       sodipodi:cy="-20.944143"
       sodipodi:rx="0.64802557"
       sodipodi:ry="1.1364814"
       sodipodi:start="0"
       sodipodi:end="3.1841494"
       d="m 9.4248543,-20.944143 a 0.64802557,1.1364814 0 0 1 -0.3320061,0.992183 0.64802557,1.1364814 0 0 1 -0.6558218,-0.02448 0.64802557,1.1364814 0 0 1 -0.3076365,-1.016057 l 0.6474389,0.04835 z"
       transform="scale(1,-1)" />
    <path
       style="fill:#f7e1b7;fill-opacity:1;stroke:none;stroke-width:13.32317734;stroke-linecap:round;stroke-linejoin:bevel;stroke-miterlimit:4;stroke-dasharray:none;stroke-opacity:1;paint-order:markers stroke fill"
       id="path6342-8-2-4-6-1"
       sodipodi:type="arc"
       sodipodi:cx="12.223877"
       sodipodi:cy="-20.944143"
       sodipodi:rx="2.4205043"
       sodipodi:ry="1.1364814"
       sodipodi:start="0"
       sodipodi:end="3.1841494"
       d="m 14.644381,-20.944143 a 2.4205043,1.1364814 0 0 1 -1.240109,0.992183 2.4205043,1.1364814 0 0 1 -2.449624,-0.02448 2.4205043,1.1364814 0 0 1 -1.1490838,-1.016057 l 2.4183128,0.04835 z"
       transform="scale(1,-1)" />
    <path
       style="fill:#f7e1b7;fill-opacity:1;stroke:none;stroke-width:6.89367771;stroke-linecap:round;stroke-linejoin:bevel;stroke-miterlimit:4;stroke-dasharray:none;stroke-opacity:1;paint-order:markers stroke fill"
       id="path6342-8-2-27-4-3"
       sodipodi:type="arc"
       sodipodi:cx="15.67093"
       sodipodi:cy="-20.944143"
       sodipodi:rx="0.64802557"
       sodipodi:ry="1.1364814"
       sodipodi:start="0"
       sodipodi:end="3.1841494"
       d="m 16.318955,-20.944143 a 0.64802557,1.1364814 0 0 1 -0.332006,0.992183 0.64802557,1.1364814 0 0 1 -0.655821,-0.02448 0.64802557,1.1364814 0 0 1 -0.307637,-1.016057 l 0.647439,0.04835 z"
       transform="scale(1,-1)" />
    <path
       style="fill:#f7e1b7;fill-opacity:1;stroke:none;stroke-width:6.89367771;stroke-linecap:round;stroke-linejoin:bevel;stroke-miterlimit:4;stroke-dasharray:none;stroke-opacity:1;paint-order:markers stroke fill"
       id="path6342-8-2-23-8-80"
       sodipodi:type="arc"
       sodipodi:cx="17.394453"
       sodipodi:cy="-20.944143"
       sodipodi:rx="0.64802557"
       sodipodi:ry="1.1364814"
       sodipodi:start="0"
       sodipodi:end="3.1841494"
       d="m 18.042479,-20.944143 a 0.64802557,1.1364814 0 0 1 -0.332007,0.992183 0.64802557,1.1364814 0 0 1 -0.655821,-0.02448 0.64802557,1.1364814 0 0 1 -0.307637,-1.016057 l 0.647439,0.04835 z"
       transform="scale(1,-1)" />
    <rect
       style="fill:#6d3219;fill-opacity:1;stroke:none;stroke-width:4.10713387;stroke-linecap:round;stroke-linejoin:bevel;stroke-miterlimit:4;stroke-dasharray:none;stroke-opacity:1;paint-order:markers stroke fill"
       id="rect6697"
       width="21.690994"
       height="0.31053516"
       x="1.4821028"
       y="10.360243"
       rx="1.013849"
       ry="0.31053516" />
    <rect
       style="fill:#6abcb8;fill-opacity:1;stroke:none;stroke-width:4.10713387;stroke-linecap:round;stroke-linejoin:bevel;stroke-miterlimit:4;stroke-dasharray:none;stroke-opacity:1;paint-order:markers stroke fill"
       id="rect6699"
       width="1.8382199"
       height="1.0868722"
       x="7.3309841"
       y="9.9720745"
       rx="1.013849"
       ry="0.31053489" />
    <rect
       style="fill:#6abcb8;fill-opacity:1;stroke:none;stroke-width:4.10713387;stroke-linecap:round;stroke-linejoin:bevel;stroke-miterlimit:4;stroke-dasharray:none;stroke-opacity:1;paint-order:markers stroke fill"
       id="rect6699-2"
       width="1.8382199"
       height="1.0868722"
       x="16.137728"
       y="9.8944407"
       rx="1.013849"
       ry="0.31053489" />
    <path
       style="fill:#f7e1b7;fill-opacity:1;stroke:none;stroke-width:4.10713387;stroke-linecap:round;stroke-linejoin:bevel;stroke-miterlimit:4;stroke-dasharray:none;stroke-opacity:1;paint-order:markers stroke fill"
       id="path6721"
       sodipodi:type="arc"
       sodipodi:cx="12.798175"
       sodipodi:cy="11.088663"
       sodipodi:rx="2.0888863"
       sodipodi:ry="1.8438011"
       sodipodi:start="0"
       sodipodi:end="3.1526056"
       d="m 14.887061,11.088663 a 2.0888863,1.8438011 0 0 1 -1.051091,1.600152 2.0888863,1.8438011 0 0 1 -2.095492,-0.01018 2.0888863,1.8438011 0 0 1 -1.031063,-1.610272 l 2.08876,0.02031 z" />
  </g>
</svg>
